<svg width="190" height="190" viewBox="0 0 190 190" fill="none" xmlns="http://www.w3.org/2000/svg">
<path d="M90.5 2.59808C93.2846 0.99038 96.7154 0.990381 99.5 2.59808L172.772 44.9019C175.557 46.5096 177.272 49.4808 177.272 52.6962V137.304C177.272 140.519 175.557 143.49 172.772 145.098L99.5 187.402C96.7154 189.01 93.2846 189.01 90.5 187.402L17.2276 145.098C14.443 143.49 12.7276 140.519 12.7276 137.304V52.6962C12.7276 49.4808 14.443 46.5096 17.2276 44.9019L90.5 2.59808Z" fill="#5192F3"/>
<path d="M98.75 15.8971L161.63 52.201C163.951 53.5407 165.38 56.0167 165.38 58.6962V131.304C165.38 133.983 163.951 136.459 161.63 137.799L98.75 174.103C96.4295 175.443 93.5705 175.443 91.25 174.103L28.3699 137.799C26.0494 136.459 24.6199 133.983 24.6199 131.304V58.6962C24.6199 56.0167 26.0494 53.5407 28.3699 52.201L91.25 15.8971C93.5705 14.5574 96.4295 14.5574 98.75 15.8971Z" fill="#2E4567" stroke="black" stroke-width="3"/>
<circle cx="94.7704" cy="114.23" r="39.7704" fill="black"/>
<path d="M94.7704 36L128.456 93.0333H61.0852L94.7704 36Z" fill="black"/>
<circle cx="94.7704" cy="114.23" r="36.2741" fill="#38AEF0"/>
<path d="M94.7704 42.9926L125.428 94.8131H64.1131L94.7704 42.9926Z" fill="#38AEF0"/>
<ellipse cx="94.7704" cy="139.141" rx="19.6667" ry="6.99259" fill="black"/>
<circle cx="68.9852" cy="119.911" r="6.36667" fill="white" stroke="#38AEF0" stroke-width="3"/>
<circle cx="68.9852" cy="101.556" r="3.74444" fill="white" stroke="#38AEF0" stroke-width="3"/>
<ellipse cx="94.7704" cy="145.259" rx="10.9259" ry="1.74815" fill="white"/>
<circle cx="75.1037" cy="130.4" r="8.98889" fill="white" stroke="#38AEF0" stroke-width="3"/>
</svg>
